Gait_lateral_09_analogdata.mot
version=1
nRows=38
nColumns=19
inDegrees=yes
endheader
time	1_ground_force_vx	1_ground_force_vy	1_ground_force_vz	1_ground_force_px	1_ground_force_py	1_ground_force_pz	1_ground_torque_x	1_ground_torque_y	1_ground_torque_z	2_ground_force_vx	2_ground_force_vy	2_ground_force_vz	2_ground_force_px	2_ground_force_py	2_ground_force_pz	2_ground_torque_x	2_ground_torque_y	2_ground_torque_z
0.645000	-46.741019	686.030823	66.231331	-0.095114	0.000000	-0.343619	0.090047	-1.321638	-0.127595	0.000000	0.000000	-0.000000	-0.200000	0.000000	0.302000	0.000000	0.000000	-0.000000
0.646000	-46.741019	681.131958	66.319802	-0.096394	0.000000	-0.344498	0.117928	-1.718502	-0.167325	0.000000	0.000000	-0.000000	-0.200000	0.000000	0.302000	0.000000	0.000000	-0.000000
0.647000	-47.186446	679.382324	67.646836	-0.094929	0.000000	-0.341766	0.123890	-1.783748	-0.177610	0.000000	0.000000	-0.000000	-0.200000	0.000000	0.302000	0.000000	0.000000	-0.000000
0.648000	-46.384673	692.679382	68.619996	-0.096904	0.000000	-0.341839	0.114660	-1.712253	-0.169624	0.000000	0.000000	-0.000000	-0.200000	0.000000	0.302000	0.000000	0.000000	-0.000000
0.649000	-46.028331	684.281250	67.027550	-0.095608	0.000000	-0.343134	0.130919	-1.946304	-0.190647	0.000000	0.000000	-0.000000	-0.200000	0.000000	0.302000	0.000000	0.000000	-0.000000
0.650000	-47.453704	681.131958	69.150811	-0.095410	0.000000	-0.342432	0.148487	-2.131331	-0.216380	0.000000	0.000000	-0.000000	-0.200000	0.000000	0.302000	0.000000	0.000000	-0.000000
0.651000	-46.919189	680.782043	71.008667	-0.095050	0.000000	-0.342607	0.135888	-1.971694	-0.205657	0.000000	0.000000	-0.000000	-0.200000	0.000000	0.302000	0.000000	0.000000	-0.000000
0.652000	-46.206504	681.131958	71.185608	-0.094864	0.000000	-0.343483	0.120881	-1.781910	-0.186229	0.000000	0.000000	-0.000000	-0.200000	0.000000	0.302000	0.000000	0.000000	-0.000000
0.653000	-46.562847	676.932861	71.274079	-0.095198	0.000000	-0.342370	0.139056	-2.021596	-0.212853	0.000000	0.000000	-0.000000	-0.200000	0.000000	0.302000	0.000000	0.000000	-0.000000
0.654000	-45.850162	677.632690	72.866524	-0.095231	0.000000	-0.342117	0.143049	-2.114169	-0.227339	0.000000	0.000000	-0.000000	-0.200000	0.000000	0.302000	0.000000	0.000000	-0.000000
0.655000	-45.582905	677.282776	73.131928	-0.094466	0.000000	-0.341627	0.168335	-2.501161	-0.270071	0.000000	0.000000	-0.000000	-0.200000	0.000000	0.302000	0.000000	0.000000	-0.000000
0.656000	-45.850162	676.582947	73.485802	-0.093805	0.000000	-0.342951	0.128034	-1.889314	-0.205204	0.000000	0.000000	-0.000000	-0.200000	0.000000	0.302000	0.000000	0.000000	-0.000000
0.657000	-45.939247	670.634277	74.458970	-0.094495	0.000000	-0.343811	0.127554	-1.862072	-0.206742	0.000000	0.000000	-0.000000	-0.200000	0.000000	0.302000	0.000000	0.000000	-0.000000
0.658000	-45.404732	665.735352	76.051415	-0.094168	0.000000	-0.342078	0.119613	-1.753792	-0.200347	0.000000	0.000000	-0.000000	-0.200000	0.000000	0.302000	0.000000	0.000000	-0.000000
0.659000	-44.513874	671.684021	76.670701	-0.095556	0.000000	-0.341651	0.110242	-1.663475	-0.189881	0.000000	0.000000	-0.000000	-0.200000	0.000000	0.302000	0.000000	0.000000	-0.000000
0.660000	-44.602959	673.083740	76.759171	-0.095930	0.000000	-0.341083	0.112569	-1.698730	-0.193725	0.000000	0.000000	-0.000000	-0.200000	0.000000	0.302000	0.000000	0.000000	-0.000000
0.661000	-44.959301	672.033936	77.201516	-0.095728	0.000000	-0.340373	0.128357	-1.918625	-0.220407	0.000000	0.000000	-0.000000	-0.200000	0.000000	0.302000	0.000000	0.000000	-0.000000
0.662000	-44.602959	673.083740	77.466920	-0.096207	0.000000	-0.340033	0.130758	-1.973217	-0.227103	0.000000	0.000000	-0.000000	-0.200000	0.000000	0.302000	0.000000	0.000000	-0.000000
0.663000	-45.137474	672.733765	77.555390	-0.095973	0.000000	-0.339770	0.138718	-2.067461	-0.238345	0.000000	0.000000	-0.000000	-0.200000	0.000000	0.302000	0.000000	0.000000	-0.000000
0.664000	-45.137475	669.584473	78.793961	-0.095783	0.000000	-0.339975	0.126521	-1.876858	-0.220861	0.000000	0.000000	-0.000000	-0.200000	0.000000	0.302000	0.000000	0.000000	-0.000000
0.665000	-44.602959	665.735352	78.970895	-0.095959	0.000000	-0.339977	0.141536	-2.112544	-0.250594	0.000000	0.000000	-0.000000	-0.200000	0.000000	0.302000	0.000000	0.000000	-0.000000
0.666000	-44.068444	664.685547	80.032533	-0.094972	0.000000	-0.338734	0.137313	-2.071100	-0.249374	0.000000	0.000000	-0.000000	-0.200000	0.000000	0.302000	0.000000	0.000000	-0.000000
0.667000	-44.068444	665.035522	81.094163	-0.095722	0.000000	-0.339939	0.102747	-1.550552	-0.189074	-0.186743	0.000000	-1.236584	-0.276953	0.000000	0.105220	0.000021	-0.001194	0.000142
0.668000	-43.355760	660.486511	81.094163	-0.096630	0.000000	-0.339752	0.132417	-2.017255	-0.247677	0.792828	0.000000	-0.705328	-0.265582	0.000000	0.128239	-0.006414	-0.158258	0.005707
0.669000	-43.712102	659.436768	82.332726	-0.095942	0.000000	-0.338621	0.140184	-2.114798	-0.264039	2.395762	20.966444	2.482202	-0.254780	0.000000	0.118946	0.016997	0.148749	0.017610
0.670000	-42.821245	655.937500	83.571298	-0.095434	0.000000	-0.338578	0.119629	-1.832475	-0.233471	2.573865	0.000000	5.669732	-0.266213	0.000000	0.077985	0.065489	0.461932	0.144259
0.671000	-41.841302	659.786682	83.748239	-0.095626	0.000000	-0.338551	0.126617	-1.996592	-0.253432	2.128605	0.000000	8.060380	-0.295835	0.000000	0.035424	0.039889	0.300702	0.151047
0.672000	-40.861356	652.788208	83.925172	-0.095445	0.000000	-0.338541	0.127499	-2.036887	-0.261871	1.772397	0.000000	10.273943	-0.295537	0.000000	0.086685	0.009028	0.094268	0.052333
0.673000	-42.643072	656.637329	84.455987	-0.096261	0.000000	-0.338088	0.138780	-2.136997	-0.274858	2.484812	27.292118	11.690624	-0.277813	0.000000	0.129452	0.024563	0.269790	0.115565
0.674000	-41.217699	654.537842	85.252214	-0.096008	0.000000	-0.338441	0.125505	-1.993029	-0.259588	3.108176	31.509233	12.576048	-0.285439	0.000000	0.130813	0.033560	0.340221	0.135790
0.675000	-41.663130	651.038574	86.048440	-0.095822	0.000000	-0.337933	0.131725	-2.058362	-0.272056	2.662916	35.023499	14.346898	-0.287178	0.000000	0.131494	0.010832	0.142471	0.058361
0.676000	-41.217699	653.138123	87.021600	-0.096442	0.000000	-0.337019	0.144673	-2.292504	-0.305444	2.662915	40.646317	16.383377	-0.280185	0.000000	0.127831	0.013256	0.202330	0.081553
0.677000	-41.039530	649.289001	87.817819	-0.095706	0.000000	-0.337378	0.145566	-2.303016	-0.311488	3.108175	45.917713	18.685482	-0.278959	0.000000	0.135617	0.007638	0.112837	0.045917
0.678000	-40.772272	645.789734	87.729349	-0.095452	0.000000	-0.338092	0.136351	-2.159655	-0.293385	3.642486	52.243385	20.899045	-0.281933	0.000000	0.135885	0.032953	0.472635	0.189069
0.679000	-40.594099	639.841064	88.879449	-0.095337	0.000000	-0.337948	0.133865	-2.109967	-0.293093	4.087745	57.514782	23.909491	-0.284733	0.000000	0.130585	0.008724	0.122753	0.051030
0.680000	-40.237757	641.240784	90.118021	-0.095711	0.000000	-0.337383	0.121763	-1.940444	-0.272704	4.265849	64.894730	25.857426	-0.274872	0.000000	0.145233	0.018073	0.274934	0.109548
0.681000	-39.435984	638.441406	89.321802	-0.096092	0.000000	-0.337325	0.126248	-2.043864	-0.285949	4.443952	74.031815	26.123053	-0.273490	0.000000	0.144926	0.042991	0.716190	0.252717
0.682000	-40.594100	638.441406	90.825777	-0.096888	0.000000	-0.336241	0.129320	-2.033872	-0.289342	4.711108	76.843224	25.149085	-0.279346	0.000000	0.137820	0.026563	0.433264	0.141798
